<svg width="387" height="155" viewBox="0 0 387 155" fill="none" xmlns="http://www.w3.org/2000/svg">
<path d="M24.9091 30.9091V124H8.45455V30.9091H24.9091ZM72.2841 125.364C65.4659 125.364 59.5568 123.864 54.5568 120.864C49.5568 117.864 45.678 113.667 42.9205 108.273C40.1932 102.879 38.8295 96.5758 38.8295 89.3636C38.8295 82.1515 40.1932 75.8333 42.9205 70.4091C45.678 64.9848 49.5568 60.7727 54.5568 57.7727C59.5568 54.7727 65.4659 53.2727 72.2841 53.2727C79.1023 53.2727 85.0114 54.7727 90.0114 57.7727C95.0114 60.7727 98.875 64.9848 101.602 70.4091C104.36 75.8333 105.739 82.1515 105.739 89.3636C105.739 96.5758 104.36 102.879 101.602 108.273C98.875 113.667 95.0114 117.864 90.0114 120.864C85.0114 123.864 79.1023 125.364 72.2841 125.364ZM72.375 112.182C76.072 112.182 79.1629 111.167 81.6477 109.136C84.1326 107.076 85.9811 104.318 87.1932 100.864C88.4356 97.4091 89.0568 93.5606 89.0568 89.3182C89.0568 85.0455 88.4356 81.1818 87.1932 77.7273C85.9811 74.2424 84.1326 71.4697 81.6477 69.4091C79.1629 67.3485 76.072 66.3182 72.375 66.3182C68.5871 66.3182 65.4356 67.3485 62.9205 69.4091C60.4356 71.4697 58.572 74.2424 57.3295 77.7273C56.1174 81.1818 55.5114 85.0455 55.5114 89.3182C55.5114 93.5606 56.1174 97.4091 57.3295 100.864C58.572 104.318 60.4356 107.076 62.9205 109.136C65.4356 111.167 68.5871 112.182 72.375 112.182ZM120.432 124V30.9091H136.886V65.7273H137.568C138.417 64.0303 139.614 62.2273 141.159 60.3182C142.705 58.3788 144.795 56.7273 147.432 55.3636C150.068 53.9697 153.432 53.2727 157.523 53.2727C162.917 53.2727 167.78 54.6515 172.114 57.4091C176.477 60.1364 179.932 64.1818 182.477 69.5455C185.053 74.8788 186.341 81.4242 186.341 89.1818C186.341 96.8485 185.083 103.364 182.568 108.727C180.053 114.091 176.629 118.182 172.295 121C167.962 123.818 163.053 125.227 157.568 125.227C153.568 125.227 150.25 124.561 147.614 123.227C144.977 121.894 142.856 120.288 141.25 118.409C139.674 116.5 138.447 114.697 137.568 113H136.614V124H120.432ZM136.568 89.0909C136.568 93.6061 137.205 97.5606 138.477 100.955C139.78 104.348 141.644 107 144.068 108.909C146.523 110.788 149.492 111.727 152.977 111.727C156.614 111.727 159.659 110.758 162.114 108.818C164.568 106.848 166.417 104.167 167.659 100.773C168.932 97.3485 169.568 93.4545 169.568 89.0909C169.568 84.7576 168.947 80.9091 167.705 77.5455C166.462 74.1818 164.614 71.5455 162.159 69.6364C159.705 67.7273 156.644 66.7727 152.977 66.7727C149.462 66.7727 146.477 67.697 144.023 69.5455C141.568 71.3939 139.705 73.9848 138.432 77.3182C137.189 80.6515 136.568 84.5758 136.568 89.0909ZM231.239 125.364C224.239 125.364 218.193 123.909 213.102 121C208.042 118.061 204.148 113.909 201.42 108.545C198.693 103.152 197.33 96.803 197.33 89.5C197.33 82.3182 198.693 76.0152 201.42 70.5909C204.178 65.1364 208.027 60.8939 212.966 57.8636C217.905 54.803 223.708 53.2727 230.375 53.2727C234.678 53.2727 238.739 53.9697 242.557 55.3636C246.405 56.7273 249.799 58.8485 252.739 61.7273C255.708 64.6061 258.042 68.2727 259.739 72.7273C261.436 77.1515 262.284 82.4242 262.284 88.5455V93.5909H205.057V82.5H246.511C246.481 79.3485 245.799 76.5455 244.466 74.0909C243.133 71.6061 241.269 69.6515 238.875 68.2273C236.511 66.803 233.754 66.0909 230.602 66.0909C227.239 66.0909 224.284 66.9091 221.739 68.5455C219.193 70.1515 217.208 72.2727 215.784 74.9091C214.39 77.5151 213.678 80.3788 213.648 83.5V93.1818C213.648 97.2424 214.39 100.727 215.875 103.636C217.36 106.515 219.436 108.727 222.102 110.273C224.769 111.788 227.89 112.545 231.466 112.545C233.86 112.545 236.027 112.212 237.966 111.545C239.905 110.848 241.587 109.833 243.011 108.5C244.436 107.167 245.511 105.515 246.239 103.545L261.602 105.273C260.633 109.333 258.784 112.879 256.057 115.909C253.36 118.909 249.905 121.242 245.693 122.909C241.481 124.545 236.663 125.364 231.239 125.364Z" fill="#323232"/>
<rect x="327" y="65" width="60" height="60" rx="10" fill="#F34747"/>
<g filter="url(#filter0_b_1_14)">
<path d="M327 75C327 69.4772 331.477 65 337 65H352V81C352 86.5228 347.523 91 342 91H327V75Z" fill="#050000"/>
</g>
<rect x="292" y="31" width="60" height="60" rx="10" fill="#00DDB3" fill-opacity="0.81"/>
<defs>
<filter id="filter0_b_1_14" x="317.7" y="55.7" width="43.6" height="44.6" filterUnits="userSpaceOnUse" color-interpolation-filters="sRGB">
<feFlood flood-opacity="0" result="BackgroundImageFix"/>
<feGaussianBlur in="BackgroundImageFix" stdDeviation="4.65"/>
<feComposite in2="SourceAlpha" operator="in" result="effect1_backgroundBlur_1_14"/>
<feBlend mode="normal" in="SourceGraphic" in2="effect1_backgroundBlur_1_14" result="shape"/>
</filter>
</defs>
</svg>
